HIERARCHY
ROOT mixamorig:Hips
{
	OFFSET 0.000000 201.639420 0.000000
	CHANNELS 6 Xposition Yposition Zposition Xrotation Yrotation Zrotation
	JOINT mixamorig:Spine
	{
		OFFSET 0.006200 19.524994 -2.481800
		CHANNELS 3 Xrotation Yrotation Zrotation
		JOINT mixamorig:Spine1
		{
			OFFSET -0.000900 22.835007 -2.825400
			CHANNELS 3 Xrotation Yrotation Zrotation
			JOINT mixamorig:Spine2
			{
				OFFSET -0.020600 26.552490 -3.193300
				CHANNELS 3 Xrotation Yrotation Zrotation
				JOINT mixamorig:Neck
				{
					OFFSET -0.060000 30.701813 1.352200
					CHANNELS 3 Xrotation Yrotation Zrotation
					JOINT mixamorig:Head
					{
						OFFSET -0.087200 22.547607 3.670900
						CHANNELS 3 Xrotation Yrotation Zrotation
						JOINT mixamorig:HeadTop_End
						{
							OFFSET -0.830600 40.355194 7.893500
							CHANNELS 3 Xrotation Yrotation Zrotation
							End Site
							{
								OFFSET 0.000000 30.592346 0.000000
							}
						}
						JOINT mixamorig:RightEye
						{
							OFFSET -6.302100 18.118591 16.197100
							CHANNELS 3 Xrotation Yrotation Zrotation
							End Site
							{
								OFFSET 0.000000 30.592346 0.000000
							}
						}
						JOINT mixamorig:LeftEye
						{
							OFFSET 6.741500 18.382690 16.401899
							CHANNELS 3 Xrotation Yrotation Zrotation
							End Site
							{
								OFFSET 0.000000 30.592346 0.000000
							}
						}
					}
				}
				JOINT mixamorig:LeftShoulder
				{
					OFFSET 11.924900 18.230499 1.425400
					CHANNELS 3 Xrotation Yrotation Zrotation
					JOINT mixamorig:LeftArm
					{
						OFFSET 25.435989 -0.697632 -5.229300
						CHANNELS 3 Xrotation Yrotation Zrotation
						JOINT mixamorig:LeftForeArm
						{
							OFFSET 54.684776 0.000000 0.000000
							CHANNELS 3 Xrotation Yrotation Zrotation
							JOINT mixamorig:LeftHand
							{
								OFFSET 55.098175 0.000000 0.000000
								CHANNELS 3 Xrotation Yrotation Zrotation
								JOINT mixamorig:LeftHandMiddle1
								{
									OFFSET 23.369751 0.000000 0.000000
									CHANNELS 3 Xrotation Yrotation Zrotation
									JOINT mixamorig:LeftHandMiddle2
									{
										OFFSET 6.378677 0.000000 0.000000
										CHANNELS 3 Xrotation Yrotation Zrotation
										JOINT mixamorig:LeftHandMiddle3
										{
											OFFSET 6.148331 0.000000 0.000000
											CHANNELS 3 Xrotation Yrotation Zrotation
											JOINT mixamorig:LeftHandMiddle4
											{
												OFFSET 6.582504 0.000000 0.000000
												CHANNELS 3 Xrotation Yrotation Zrotation
												End Site
												{
													OFFSET -1.168900 6.395691 1.028606
												}
											}
										}
									}
								}
								JOINT mixamorig:LeftHandThumb1
								{
									OFFSET 7.235672 -3.848206 5.434273
									CHANNELS 3 Xrotation Yrotation Zrotation
									JOINT mixamorig:LeftHandThumb2
									{
										OFFSET 6.568451 -3.792297 3.792300
										CHANNELS 3 Xrotation Yrotation Zrotation
										JOINT mixamorig:LeftHandThumb3
										{
											OFFSET 6.063080 -3.500519 3.500518
											CHANNELS 3 Xrotation Yrotation Zrotation
											JOINT mixamorig:LeftHandThumb4
											{
												OFFSET 4.793182 -2.767334 2.767349
												CHANNELS 3 Xrotation Yrotation Zrotation
												End Site
												{
													OFFSET 0.101639 6.054260 1.275483
												}
											}
										}
									}
								}
								JOINT mixamorig:LeftHandIndex1
								{
									OFFSET 23.101074 -0.309540 4.992809
									CHANNELS 3 Xrotation Yrotation Zrotation
									JOINT mixamorig:LeftHandIndex2
									{
										OFFSET 6.226883 0.000000 0.000000
										CHANNELS 3 Xrotation Yrotation Zrotation
										JOINT mixamorig:LeftHandIndex3
										{
											OFFSET 6.094330 0.000000 0.000000
											CHANNELS 3 Xrotation Yrotation Zrotation
											JOINT mixamorig:LeftHandIndex4
											{
												OFFSET 5.482605 0.000000 0.000000
												CHANNELS 3 Xrotation Yrotation Zrotation
												End Site
												{
													OFFSET -1.427902 5.233032 0.797164
												}
											}
										}
									}
								}
								JOINT mixamorig:LeftHandRing1
								{
									OFFSET 22.299240 0.021149 -3.964172
									CHANNELS 3 Xrotation Yrotation Zrotation
									JOINT mixamorig:LeftHandRing2
									{
										OFFSET 6.321869 0.000000 0.000000
										CHANNELS 3 Xrotation Yrotation Zrotation
										JOINT mixamorig:LeftHandRing3
										{
											OFFSET 5.899796 0.000000 0.000000
											CHANNELS 3 Xrotation Yrotation Zrotation
											JOINT mixamorig:LeftHandRing4
											{
												OFFSET 6.517899 0.000000 0.000000
												CHANNELS 3 Xrotation Yrotation Zrotation
												End Site
												{
													OFFSET -1.637299 6.232208 0.980890
												}
											}
										}
									}
								}
								JOINT mixamorig:LeftHandPinky1
								{
									OFFSET 20.463791 -0.302338 -8.562233
									CHANNELS 3 Xrotation Yrotation Zrotation
									JOINT mixamorig:LeftHandPinky2
									{
										OFFSET 6.908646 0.000000 0.000000
										CHANNELS 3 Xrotation Yrotation Zrotation
										JOINT mixamorig:LeftHandPinky3
										{
											OFFSET 4.622849 0.000000 0.000000
											CHANNELS 3 Xrotation Yrotation Zrotation
											JOINT mixamorig:LeftHandPinky4
											{
												OFFSET 5.216080 0.000000 0.000000
												CHANNELS 3 Xrotation Yrotation Zrotation
												End Site
												{
													OFFSET -0.606308 5.116241 0.814926
												}
											}
										}
									}
								}
							}
						}
					}
				}
				JOINT mixamorig:RightShoulder
				{
					OFFSET -12.001300 18.284088 1.348900
					CHANNELS 3 Xrotation Yrotation Zrotation
					JOINT mixamorig:RightArm
					{
						OFFSET -25.308500 -0.751312 -5.164599
						CHANNELS 3 Xrotation Yrotation Zrotation
						JOINT mixamorig:RightForeArm
						{
							OFFSET -54.684429 0.000000 0.000000
							CHANNELS 3 Xrotation Yrotation Zrotation
							JOINT mixamorig:RightHand
							{
								OFFSET -55.150291 0.000000 0.000000
								CHANNELS 3 Xrotation Yrotation Zrotation
								JOINT mixamorig:RightHandMiddle1
								{
									OFFSET -23.317566 0.000000 0.000000
									CHANNELS 3 Xrotation Yrotation Zrotation
									JOINT mixamorig:RightHandMiddle2
									{
										OFFSET -6.378403 0.000000 0.000000
										CHANNELS 3 Xrotation Yrotation Zrotation
										JOINT mixamorig:RightHandMiddle3
										{
											OFFSET -6.148193 0.000000 0.000000
											CHANNELS 3 Xrotation Yrotation Zrotation
											JOINT mixamorig:RightHandMiddle4
											{
												OFFSET -6.583389 0.000000 0.000000
												CHANNELS 3 Xrotation Yrotation Zrotation
												End Site
												{
													OFFSET 1.171692 6.395905 1.029786
												}
											}
										}
									}
								}
								JOINT mixamorig:RightHandThumb1
								{
									OFFSET -7.190521 -3.860474 5.435846
									CHANNELS 3 Xrotation Yrotation Zrotation
									JOINT mixamorig:RightHandThumb2
									{
										OFFSET -6.567429 -3.791718 3.791708
										CHANNELS 3 Xrotation Yrotation Zrotation
										JOINT mixamorig:RightHandThumb3
										{
											OFFSET -6.062469 -3.500153 3.500166
											CHANNELS 3 Xrotation Yrotation Zrotation
											JOINT mixamorig:RightHandThumb4
											{
												OFFSET -4.792618 -2.767029 2.767022
												CHANNELS 3 Xrotation Yrotation Zrotation
												End Site
												{
													OFFSET -0.100327 6.053253 1.276754
												}
											}
										}
									}
								}
								JOINT mixamorig:RightHandIndex1
								{
									OFFSET -23.048981 -0.310791 4.992554
									CHANNELS 3 Xrotation Yrotation Zrotation
									JOINT mixamorig:RightHandIndex2
									{
										OFFSET -6.227539 0.000000 0.000000
										CHANNELS 3 Xrotation Yrotation Zrotation
										JOINT mixamorig:RightHandIndex3
										{
											OFFSET -6.095047 0.000000 0.000000
											CHANNELS 3 Xrotation Yrotation Zrotation
											JOINT mixamorig:RightHandIndex4
											{
												OFFSET -5.484772 0.000000 0.000000
												CHANNELS 3 Xrotation Yrotation Zrotation
												End Site
												{
													OFFSET 1.420593 5.237305 0.797056
												}
											}
										}
									}
								}
								JOINT mixamorig:RightHandRing1
								{
									OFFSET -22.246323 0.020569 -3.963762
									CHANNELS 3 Xrotation Yrotation Zrotation
									JOINT mixamorig:RightHandRing2
									{
										OFFSET -6.322128 0.000000 0.000000
										CHANNELS 3 Xrotation Yrotation Zrotation
										JOINT mixamorig:RightHandRing3
										{
											OFFSET -5.900024 0.000000 0.000000
											CHANNELS 3 Xrotation Yrotation Zrotation
											JOINT mixamorig:RightHandRing4
											{
												OFFSET -6.518356 0.000000 0.000000
												CHANNELS 3 Xrotation Yrotation Zrotation
												End Site
												{
													OFFSET 1.636398 6.232697 0.982186
												}
											}
										}
									}
								}
								JOINT mixamorig:RightHandPinky1
								{
									OFFSET -20.411011 -0.303314 -8.561701
									CHANNELS 3 Xrotation Yrotation Zrotation
									JOINT mixamorig:RightHandPinky2
									{
										OFFSET -6.907349 0.000000 0.000000
										CHANNELS 3 Xrotation Yrotation Zrotation
										JOINT mixamorig:RightHandPinky3
										{
											OFFSET -4.623840 0.000000 0.000000
											CHANNELS 3 Xrotation Yrotation Zrotation
											JOINT mixamorig:RightHandPinky4
											{
												OFFSET -5.218353 0.000000 0.000000
												CHANNELS 3 Xrotation Yrotation Zrotation
												End Site
												{
													OFFSET 0.602097 5.118835 0.816273
												}
											}
										}
									}
								}
							}
						}
					}
				}
			}
		}
	}
	JOINT mixamorig:LeftUpLeg
	{
		OFFSET 18.168400 -13.561905 -0.039000
		CHANNELS 3 Xrotation Yrotation Zrotation
		JOINT mixamorig:LeftLeg
		{
			OFFSET 0.577358 -80.825211 -3.695000
			CHANNELS 3 Xrotation Yrotation Zrotation
			JOINT mixamorig:LeftFoot
			{
				OFFSET -0.577356 -83.370262 -6.520700
				CHANNELS 3 Xrotation Yrotation Zrotation
				JOINT mixamorig:LeftToeBase
				{
					OFFSET 0.750401 -20.798306 25.135401
					CHANNELS 3 Xrotation Yrotation Zrotation
					JOINT mixamorig:LeftToe_End
					{
						OFFSET -0.000500 0.001200 19.917799
						CHANNELS 3 Xrotation Yrotation Zrotation
						End Site
						{
							OFFSET 0.000000 19.917805 0.000000
						}
					}
				}
			}
		}
	}
	JOINT mixamorig:RightUpLeg
	{
		OFFSET -18.162500 -13.585098 -0.041000
		CHANNELS 3 Xrotation Yrotation Zrotation
		JOINT mixamorig:RightLeg
		{
			OFFSET -0.595024 -80.945297 -3.631900
			CHANNELS 3 Xrotation Yrotation Zrotation
			JOINT mixamorig:RightFoot
			{
				OFFSET 0.595024 -83.218193 -6.561200
				CHANNELS 3 Xrotation Yrotation Zrotation
				JOINT mixamorig:RightToeBase
				{
					OFFSET -0.753601 -20.807106 25.115000
					CHANNELS 3 Xrotation Yrotation Zrotation
					JOINT mixamorig:RightToe_End
					{
						OFFSET 0.000299 0.001700 19.918200
						CHANNELS 3 Xrotation Yrotation Zrotation
						End Site
						{
							OFFSET 0.000000 19.918203 0.000000
						}
					}
				}
			}
		}
	}
}
MOTION
Frames: 4
Frame Time: 0.033333
-0.843713 190.040817 -0.935249 -1.504996 8.288441 3.052516 5.550161 -0.002564 -0.495635 11.100292 0.009741 -0.734988 11.100296 0.009740 -0.734987 -10.509738 -1.525005 -3.378786 -17.396608 -3.946750 2.467866 0.000000 -0.000000 -0.000000 0.000000 -0.000000 -0.000000 0.000000 -0.000000 -0.000000 9.458501 -6.444350 -14.996474 -9.688684 10.601554 -35.774499 0.001830 -55.255930 0.168443 23.869196 -12.510017 16.445986 1.641873 7.127214 -4.239653 -0.187949 -0.789344 -15.969047 -0.000001 0.000005 0.000013 -0.000001 0.000001 0.000001 7.350855 -14.484205 -10.934817 -1.067068 0.182823 1.946067 0.000013 -0.000020 0.000005 -0.000001 -0.000001 0.000001 5.776119 -9.584519 -10.641331 0.033750 0.666549 -10.636465 0.000001 0.000004 -0.000008 0.000000 -0.000001 0.000001 1.677302 11.039981 -8.046059 -0.183064 -2.876883 -23.912161 -0.000004 -0.000002 -0.000007 0.000001 -0.000002 0.000000 0.734601 28.047559 -16.218784 -0.849528 -6.142167 -29.148249 -0.000002 -0.000002 -0.000006 -0.000002 0.000000 -0.000000 -3.413085 0.044908 -0.357072 -8.521088 -11.378036 60.672618 -0.093808 56.128896 -0.117896 33.242298 -12.830426 -17.731929 -1.738478 -1.670967 3.393800 -0.252698 0.798102 21.448266 0.000000 0.000000 0.000008 0.000001 -0.000001 -0.000002 -4.978398 12.391672 9.407256 -1.210143 -0.220459 -2.121016 0.000010 0.000024 -0.000005 0.000002 0.000002 -0.000001 10.258593 13.576565 6.067471 0.012530 -0.647881 4.076589 -0.000005 -0.000014 -0.000003 -0.000000 -0.000001 0.000001 -0.824279 -13.700961 18.348837 -0.242210 2.213616 16.221201 0.000001 0.000005 0.000004 0.000004 0.000002 0.000000 -4.380729 -23.900587 30.060318 -0.233906 5.125289 12.870318 -0.000001 -0.000004 -0.000005 -0.000001 0.000000 -0.000002 -24.087921 -6.434331 9.281417 27.493776 -0.107706 -1.033324 -2.360916 -2.992806 -12.956363 0.002987 -0.026201 0.062609 -0.000000 0.000000 -0.000000 -22.556058 -12.044403 -19.596636 40.187351 0.062117 1.447707 -15.639777 -7.989165 9.075619 0.613164 -0.189147 0.450543 0.000000 -0.000001 -0.000000 
-0.839884 190.041458 -0.783939 -1.421684 8.275251 3.020096 5.535271 -0.001553 -0.497730 11.070499 0.011257 -0.742835 11.070503 0.011258 -0.742834 -10.523644 -1.540020 -3.381087 -17.448010 -4.071271 2.556555 -0.000000 -0.000000 0.000000 -0.000000 -0.000000 0.000000 -0.000000 -0.000000 0.000000 9.462647 -6.408469 -15.046292 -9.732104 10.560760 -35.724304 0.002157 -55.204208 0.167870 23.871303 -12.525475 16.383068 1.641869 7.127213 -4.239653 -0.187954 -0.789337 -15.969042 -0.000002 -0.000003 0.000015 -0.000000 0.000001 0.000001 7.319963 -14.514121 -10.965369 -1.067071 0.182853 1.946072 0.000013 -0.000019 -0.000001 -0.000002 -0.000001 0.000000 5.776115 -9.584518 -10.641327 0.033753 0.666549 -10.636474 -0.000003 0.000007 -0.000005 -0.000002 0.000002 -0.000003 1.677303 11.039980 -8.046061 -0.183064 -2.876886 -23.912156 -0.000004 -0.000003 -0.000008 -0.000005 0.000001 0.000003 0.734600 28.047555 -16.218793 -0.849529 -6.142165 -29.148252 -0.000002 -0.000002 -0.000006 -0.000005 -0.000001 -0.000002 -3.411166 0.025560 -0.351153 -8.540797 -11.414403 60.665330 -0.093334 56.115858 -0.117703 33.267881 -12.818085 -17.681726 -1.738479 -1.670975 3.393803 -0.252696 0.798098 21.448264 -0.000001 -0.000001 0.000003 -0.000004 0.000003 0.000001 -4.978396 12.391675 9.407261 -1.210113 -0.220432 -2.120949 0.000009 0.000023 -0.000003 -0.000003 0.000000 -0.000001 10.258597 13.576565 6.067476 0.012531 -0.647885 4.076587 -0.000005 -0.000011 -0.000001 0.000002 -0.000004 0.000001 -0.824279 -13.700968 18.348837 -0.242211 2.213616 16.221197 -0.000003 0.000005 0.000009 -0.000000 -0.000001 0.000004 -4.380728 -23.900589 30.060315 -0.233909 5.125290 12.870319 -0.000003 -0.000007 -0.000006 0.000004 0.000001 -0.000001 -24.145270 -6.420804 9.319120 27.548887 -0.108831 -1.035390 -2.438549 -3.001065 -12.961645 0.002987 -0.026200 0.062610 0.000000 0.000000 -0.000000 -22.595075 -12.128501 -19.604023 40.160310 0.061105 1.447194 -15.674132 -7.905789 9.083262 0.609632 -0.189144 0.450522 -0.000000 -0.000000 -0.000000 
-0.833567 190.044739 -0.628061 -1.347227 8.240196 2.992098 5.523332 0.002592 -0.500616 11.046630 0.018909 -0.752237 11.046635 0.018911 -0.752238 -10.549705 -1.550591 -3.384808 -17.517314 -4.157584 2.607666 -0.000000 0.000000 -0.000000 -0.000000 0.000000 -0.000000 -0.000000 0.000000 -0.000000 9.466717 -6.372526 -15.093625 -9.782959 10.564328 -35.689371 0.002507 -55.172820 0.167498 23.892978 -12.553731 16.309701 1.641875 7.127207 -4.239654 -0.187950 -0.789350 -15.969035 -0.000003 0.000005 0.000011 0.000003 -0.000001 0.000002 7.285360 -14.558109 -10.947304 -1.067041 0.182830 1.946069 0.000013 -0.000020 -0.000003 -0.000002 -0.000000 0.000000 5.776120 -9.584529 -10.641330 0.033750 0.666548 -10.636467 0.000006 0.000003 -0.000004 0.000001 0.000003 -0.000006 1.677302 11.039975 -8.046061 -0.183062 -2.876888 -23.912163 -0.000004 -0.000001 -0.000006 0.000002 -0.000002 -0.000001 0.734601 28.047555 -16.218790 -0.849526 -6.142163 -29.148252 0.000001 -0.000002 -0.000007 0.000000 0.000001 0.000001 -3.412119 0.025337 -0.365999 -8.544897 -11.442478 60.679551 -0.093047 56.093738 -0.117446 33.306615 -12.800499 -17.630474 -1.738477 -1.670973 3.393802 -0.252699 0.798105 21.448266 0.000000 -0.000001 0.000004 0.000002 0.000003 -0.000002 -4.978396 12.391669 9.407264 -1.210085 -0.220444 -2.120928 0.000010 0.000027 -0.000003 0.000000 -0.000001 0.000000 10.258595 13.576563 6.067478 0.012531 -0.647882 4.076592 -0.000006 -0.000016 -0.000002 -0.000000 -0.000004 -0.000001 -0.824277 -13.700969 18.348839 -0.242210 2.213614 16.221197 0.000001 0.000006 0.000006 0.000001 -0.000000 0.000004 -4.380724 -23.900592 30.060322 -0.233908 5.125286 12.870317 -0.000005 -0.000004 -0.000004 -0.000002 0.000000 -0.000001 -24.179578 -6.419535 9.351958 27.600040 -0.111511 -1.037316 -2.520510 -2.973617 -12.970660 0.002986 -0.026198 0.062609 -0.000000 -0.000000 -0.000000 -22.623938 -12.192998 -19.608677 40.128557 0.061034 1.446486 -15.705269 -7.807605 9.092353 0.611679 -0.189149 0.450535 -0.000000 0.000001 -0.000000 
-0.824952 190.053253 -0.461977 -1.280536 8.190824 2.973811 5.512953 0.006929 -0.505003 11.025880 0.026818 -0.763894 11.025872 0.026819 -0.763894 -10.580138 -1.554703 -3.388923 -17.565367 -4.186946 2.607572 0.000000 0.000000 -0.000000 0.000000 0.000000 -0.000000 0.000000 0.000000 -0.000000 9.470366 -6.340352 -15.135014 -9.804523 10.564092 -35.668457 0.002884 -55.162947 0.167242 23.885214 -12.599741 16.251604 1.641871 7.127209 -4.239650 -0.187954 -0.789340 -15.969037 -0.000002 0.000006 0.000014 -0.000000 0.000002 0.000002 7.278939 -14.557532 -10.987059 -1.067053 0.182856 1.946059 0.000012 -0.000018 -0.000002 -0.000001 0.000001 -0.000003 5.776119 -9.584527 -10.641322 0.033749 0.666550 -10.636468 0.000003 0.000005 -0.000007 0.000001 -0.000002 0.000000 1.677300 11.039975 -8.046054 -0.183062 -2.876888 -23.912163 -0.000005 -0.000002 -0.000004 0.000001 0.000001 0.000003 0.734602 28.047552 -16.218788 -0.849530 -6.142165 -29.148249 -0.000001 -0.000001 -0.000007 0.000004 0.000000 0.000000 -3.413189 0.025436 -0.382737 -8.533770 -11.459790 60.696080 -0.092633 56.108809 -0.117462 33.337457 -12.800826 -17.578262 -1.738478 -1.670975 3.393803 -0.252700 0.798103 21.448257 -0.000004 -0.000005 0.000008 -0.000001 -0.000001 -0.000001 -4.978396 12.391666 9.407263 -1.210067 -0.220411 -2.120867 0.000011 0.000027 -0.000000 0.000000 -0.000002 0.000002 10.258598 13.576562 6.067479 0.012529 -0.647886 4.076590 -0.000004 -0.000014 -0.000003 -0.000000 0.000003 -0.000000 -0.824281 -13.700969 18.348835 -0.242208 2.213618 16.221202 -0.000003 0.000006 0.000011 0.000003 0.000002 0.000007 -4.380727 -23.900589 30.060318 -0.233909 5.125289 12.870317 0.000001 -0.000005 -0.000006 -0.000001 -0.000001 -0.000001 -24.187839 -6.434930 9.370018 27.639569 -0.115071 -1.038765 -2.601856 -2.898528 -12.981651 0.002987 -0.026200 0.062609 0.000000 -0.000000 0.000000 -22.637569 -12.232952 -19.611401 40.090051 0.062619 1.445540 -15.731457 -7.735696 9.103253 0.624373 -0.189183 0.450605 0.000000 -0.000000 0.000000 
